<?xml version="1.0" standalone="no"?>
<!DOCTYPE svg PUBLIC "-//W3C//DTD SVG 20010904//EN"
 "http://www.w3.org/TR/2001/REC-SVG-20010904/DTD/svg10.dtd">
<svg version="1.0" xmlns="http://www.w3.org/2000/svg"
 width="1042.000000pt" height="1042.000000pt" viewBox="0 0 1042.000000 1042.000000"
 preserveAspectRatio="xMidYMid meet">

<g transform="translate(0.000000,1042.000000) scale(0.100000,-0.100000)"
fill="#000000" stroke="none">
<path d="M4805 10369 c-1107 -93 -2089 -494 -2936 -1200 -152 -126 -480 -453
-614 -609 -1019 -1196 -1437 -2781 -1145 -4338 237 -1263 952 -2404 1995
-3182 1192 -890 2694 -1222 4165 -919 940 194 1837 668 2520 1334 242 236 417
433 585 660 508 686 840 1490 959 2325 36 251 46 374 53 645 29 1162 -337
2302 -1035 3225 -881 1163 -2147 1882 -3602 2046 -171 19 -774 27 -945 13z
m959 -328 c1356 -162 2547 -853 3363 -1951 942 -1268 1205 -2939 699 -4445
-458 -1361 -1502 -2460 -2835 -2984 -747 -293 -1546 -397 -2351 -305 -813 93
-1602 395 -2258 867 -1300 933 -2052 2392 -2052 3979 0 1509 695 2922 1895
3853 703 546 1545 887 2426 985 262 28 252 28 609 25 255 -3 364 -8 504 -24z"/>
<path d="M2962 9433 c2 -12 14 -19 33 -21 63 -7 198 -43 249 -67 65 -31 131
-99 145 -151 8 -27 11 -580 11 -1800 l0 -1760 -26 -52 c-44 -88 -137 -141
-310 -175 -69 -14 -104 -25 -104 -34 0 -11 149 -13 840 -13 691 0 840 2 840
13 0 9 -35 20 -105 34 -162 32 -266 91 -313 177 -15 28 -17 108 -20 889 l-2
857 1005 0 1005 0 0 -833 c0 -939 3 -901 -72 -974 -58 -56 -140 -92 -270 -117
-70 -13 -108 -25 -108 -33 0 -10 169 -13 845 -13 695 0 845 2 845 13 0 9 -35
20 -104 34 -173 34 -266 87 -310 175 l-26 52 0 1760 c0 1220 3 1773 11 1800
14 52 80 120 145 151 51 24 186 60 249 67 19 2 31 9 33 21 3 16 -40 17 -839
15 -649 -2 -843 -6 -846 -15 -3 -7 6 -14 19 -17 13 -2 63 -12 111 -22 146 -28
246 -86 290 -168 l22 -41 3 -877 2 -878 -1005 0 -1005 0 2 878 3 877 22 41
c44 83 148 142 298 170 118 22 115 21 115 39 0 13 -92 15 -841 15 -795 0 -840
-1 -837 -17z"/>
<path d="M2640 5263 c0 -5 19 -21 41 -38 66 -48 231 -225 282 -302 26 -39 67
-109 92 -156 l46 -85 -4 -1454 c-4 -1584 -2 -1526 -61 -1714 -57 -179 -145
-261 -313 -294 -41 -8 -63 -17 -63 -26 0 -12 83 -14 500 -14 425 0 500 2 500
14 0 9 -19 18 -50 25 -222 48 -343 273 -380 706 -7 88 -10 512 -8 1320 l3
1190 830 -1657 c456 -911 833 -1654 836 -1650 3 4 53 120 111 257 447 1063
1503 3552 1510 3560 5 5 7 -748 6 -1740 -3 -1749 -3 -1750 -24 -1795 -46 -100
-173 -166 -376 -195 -31 -5 -48 -12 -48 -21 0 -12 140 -14 905 -14 724 0 905
3 905 13 0 8 -38 20 -107 33 -200 38 -308 112 -333 227 -8 38 -10 537 -8 1802
l3 1750 22 41 c53 99 140 140 401 190 13 3 22 10 19 17 -3 9 -159 12 -683 12
l-679 0 -101 -240 c-869 -2057 -1146 -2711 -1153 -2724 -7 -11 -215 398 -755
1477 l-746 1492 -560 0 c-308 0 -560 -3 -560 -7z"/>
</g>
</svg>
