<?xml version="1.0" standalone="no"?>
<!DOCTYPE svg PUBLIC "-//W3C//DTD SVG 20010904//EN"
 "http://www.w3.org/TR/2001/REC-SVG-20010904/DTD/svg10.dtd">
<svg version="1.0" xmlns="http://www.w3.org/2000/svg"
 width="3941.000000pt" height="1439.000000pt" viewBox="0 0 3941.000000 1439.000000"
 preserveAspectRatio="xMidYMid meet">

<g transform="translate(0.000000,1439.000000) scale(0.100000,-0.100000)"
fill="#000000" stroke="none">
<path d="M6940 14373 c-2109 -77 -4071 -1069 -5384 -2722 -1286 -1618 -1812
-3733 -1437 -5767 387 -2095 1675 -3906 3526 -4956 806 -458 1720 -763 2630
-877 345 -43 398 -46 925 -46 552 0 631 5 1020 61 1775 255 3396 1170 4535
2559 667 813 1156 1783 1411 2799 499 1988 133 4084 -1010 5781 -517 769
-1195 1443 -1971 1962 -1246 833 -2752 1261 -4245 1206z m570 -493 c1431 -73
2758 -574 3855 -1454 286 -229 680 -610 910 -880 1193 -1396 1753 -3173 1579
-5006 -122 -1290 -617 -2510 -1425 -3520 -352 -440 -788 -865 -1224 -1191
-816 -612 -1752 -1027 -2745 -1218 -955 -183 -1965 -155 -2905 80 -949 237
-1830 678 -2588 1296 -1205 984 -2029 2333 -2336 3827 -391 1900 37 3846 1183
5376 711 950 1669 1705 2745 2164 921 394 1951 577 2951 526z"/>
<path d="M6874 13480 c-1613 -88 -3071 -746 -4189 -1891 -462 -474 -809 -954
-1106 -1534 -371 -724 -583 -1460 -666 -2310 -24 -252 -24 -857 0 -1110 67
-694 222 -1311 482 -1925 72 -169 251 -524 346 -685 619 -1057 1545 -1927
2624 -2468 1687 -845 3689 -886 5410 -111 1723 775 3039 2332 3504 4144 86
337 136 614 177 980 22 196 30 825 15 1043 -50 687 -192 1311 -441 1933 -85
213 -276 604 -390 799 -501 856 -1184 1576 -2010 2118 -886 581 -1901 925
-2968 1007 -191 14 -612 20 -788 10z m-404 -860 c0 -11 -4 -20 -9 -20 -34 0
-201 -35 -269 -57 -146 -46 -232 -116 -273 -223 -18 -48 -19 -89 -19 -1170 l0
-1120 1295 0 1295 0 0 1123 c0 1244 4 1174 -65 1255 -82 95 -219 150 -462 187
-33 5 -43 11 -43 26 0 19 23 19 1090 19 1083 0 1090 0 1090 -20 0 -11 -4 -20
-9 -20 -4 0 -48 -7 -97 -15 -234 -40 -363 -107 -432 -224 l-27 -46 0 -2315 0
-2315 22 -40 c63 -119 220 -199 466 -237 63 -9 77 -15 77 -30 0 -17 -42 -18
-1090 -18 -1049 0 -1090 1 -1090 18 0 15 14 21 81 31 194 30 340 91 414 173
80 89 75 8 75 1230 l0 1088 -1295 0 -1295 0 2 -1102 3 -1103 27 -51 c63 -120
219 -200 456 -234 69 -10 82 -15 82 -31 0 -19 -29 -19 -1090 -19 -1049 0
-1090 1 -1090 18 0 15 14 21 80 31 191 29 328 82 404 157 51 51 73 93 86 167
7 34 9 853 8 2302 l-3 2250 -24 52 c-27 61 -98 131 -169 167 -65 33 -194 70
-299 86 -70 10 -83 15 -83 31 0 18 30 19 1090 19 1083 0 1090 0 1090 -20z
m-189 -7285 c623 -1244 967 -1920 972 -1912 5 6 372 872 816 1922 l807 1910
877 3 c858 2 877 2 877 -17 0 -16 -12 -21 -72 -31 -254 -40 -414 -125 -472
-249 l-21 -46 -3 -2275 c-2 -2500 -7 -2329 58 -2419 64 -87 210 -154 409 -187
85 -14 101 -20 101 -36 0 -17 -39 -18 -1166 -18 -1084 0 -1165 1 -1162 17 2
13 33 23 138 43 244 49 355 115 417 246 17 37 18 128 21 2304 1 1285 -2 2260
-6 2255 -5 -6 -132 -300 -282 -655 -300 -709 -1538 -3633 -1805 -4265 -13 -28
-46 37 -1088 2120 l-1076 2150 0 -1562 c-1 -1035 3 -1605 10 -1690 31 -377
117 -640 252 -777 70 -70 157 -119 248 -138 46 -9 59 -16 59 -30 0 -17 -31
-18 -650 -18 -614 0 -650 1 -650 18 0 14 17 20 92 34 122 23 202 63 269 136
122 133 187 363 208 738 5 76 9 917 10 1867 l1 1729 -47 86 c-143 265 -276
433 -468 590 -44 36 -84 69 -89 74 -6 4 319 8 721 8 l730 0 964 -1925z"/>
<path d="M20398 11597 c-320 -158 -368 -184 -368 -203 0 -13 4 -25 9 -28 5 -4
43 7 85 24 131 53 174 52 203 -3 37 -69 28 -128 -213 -1432 -210 -1134 -228
-1239 -228 -1345 -1 -135 16 -192 69 -239 91 -80 256 -64 401 37 75 53 294
273 294 296 0 7 -6 19 -14 25 -11 10 -28 0 -83 -49 -81 -73 -157 -120 -195
-120 -16 0 -38 10 -49 21 -19 19 -21 29 -16 113 3 54 113 692 270 1571 244
1358 264 1481 250 1498 -9 9 -23 17 -32 16 -9 0 -181 -82 -383 -182z"/>
<path d="M15177 11304 c-4 -4 -7 -17 -7 -29 0 -20 6 -23 70 -28 156 -13 197
-58 187 -207 -7 -91 -396 -2304 -424 -2405 -42 -156 -93 -198 -259 -213 -75
-7 -79 -8 -79 -31 l0 -24 532 -1 c485 -1 532 0 536 15 8 29 -6 36 -79 42 -87
7 -137 26 -161 63 -35 54 -25 140 86 762 l105 582 613 0 c337 0 613 -4 613 -8
0 -31 -195 -1122 -210 -1180 -46 -167 -91 -207 -251 -219 -77 -6 -79 -7 -79
-32 l0 -26 530 0 c547 0 549 0 534 39 -3 9 -30 15 -78 19 -93 7 -140 26 -163
69 -38 70 -29 135 186 1343 110 622 208 1157 217 1189 20 76 49 138 77 164 33
31 101 53 185 59 72 6 73 7 70 32 -3 25 -5 26 -68 24 -217 -6 -783 -5 -877 1
l-113 8 0 -29 c0 -30 0 -30 70 -36 144 -12 187 -63 177 -213 -2 -45 -44 -306
-93 -578 l-88 -496 -613 0 c-337 0 -613 4 -613 8 0 33 185 1041 200 1094 36
121 107 175 246 185 74 6 74 6 74 35 l0 30 -117 -8 c-155 -9 -667 -9 -813 0
-63 4 -118 4 -123 0z"/>
<path d="M28973 11293 c-11 -27 6 -43 44 -43 94 0 198 -46 262 -115 34 -37 41
-51 37 -73 -3 -15 -94 -499 -201 -1077 -107 -577 -207 -1090 -221 -1140 -67
-237 -217 -402 -383 -422 -48 -5 -52 -8 -49 -31 l3 -25 422 -1 c330 -1 424 2
428 12 8 20 -6 42 -27 42 -94 0 -187 71 -223 170 -16 45 -20 80 -20 195 0 138
2 154 174 1095 95 525 176 958 180 962 3 4 120 -538 260 -1205 140 -667 258
-1222 262 -1235 7 -18 15 -23 36 -20 25 3 68 86 662 1291 349 708 636 1286
638 1284 2 -2 -26 -202 -62 -443 -36 -241 -101 -677 -145 -969 -44 -291 -91
-608 -105 -704 -53 -352 -89 -403 -293 -418 -82 -6 -83 -7 -80 -31 l3 -25 530
0 530 0 3 25 c3 24 1 25 -79 31 -134 11 -179 54 -179 174 0 68 330 2319 355
2422 20 83 46 131 89 168 40 36 79 50 161 61 55 6 60 9 60 31 l0 24 -341 0
c-338 0 -342 0 -379 -23 -20 -12 -47 -39 -59 -59 -13 -20 -248 -498 -522
-1063 -274 -566 -501 -1028 -504 -1028 -3 0 -99 447 -214 993 -114 545 -217
1020 -228 1055 -10 35 -31 77 -47 94 l-27 31 -373 1 c-291 1 -375 -2 -378 -11z"/>
<path d="M36680 11231 c-160 -52 -223 -225 -144 -389 56 -114 218 -162 354
-106 82 34 129 110 137 219 9 116 -31 203 -115 253 -37 21 -60 26 -126 29 -45
1 -92 -1 -106 -6z"/>
<path d="M26872 10247 c-17 -23 -50 -61 -75 -84 l-46 -42 -51 34 c-28 19 -87
46 -131 60 -258 81 -550 -37 -865 -350 -172 -171 -303 -348 -418 -566 -168
-319 -228 -658 -146 -833 59 -124 192 -183 354 -158 268 42 550 283 761 651
75 131 73 139 30 -108 -65 -374 -3 -532 210 -531 122 1 230 65 403 238 117
117 131 134 122 152 -16 29 -31 25 -75 -21 -53 -54 -148 -117 -190 -125 -46
-8 -72 9 -85 57 -14 51 -22 3 145 908 142 769 141 760 98 761 -7 0 -25 -19
-41 -43z m-618 -248 c56 -15 128 -92 152 -160 26 -76 24 -226 -5 -340 -65
-255 -212 -521 -386 -695 -111 -112 -177 -147 -280 -152 -60 -3 -75 0 -104 20
-80 55 -107 143 -97 323 18 351 153 704 338 881 118 114 256 158 382 123z"/>
<path d="M33847 10252 c-15 -20 -49 -59 -76 -86 l-51 -50 -22 21 c-32 29 -91
57 -172 82 -88 27 -197 28 -300 1 -494 -126 -1100 -903 -1144 -1467 -18 -234
34 -362 173 -425 69 -31 201 -32 300 -1 249 79 505 327 695 674 28 52 49 85
46 74 -3 -11 -17 -87 -32 -170 -35 -190 -39 -383 -11 -457 62 -160 266 -171
471 -24 71 51 279 262 274 278 -3 7 -11 16 -20 22 -13 8 -30 -3 -83 -52 -70
-64 -152 -112 -192 -112 -49 0 -69 44 -64 140 1 14 65 373 143 798 118 647
139 775 127 783 -24 15 -36 10 -62 -29z m-624 -253 c47 -13 112 -70 138 -120
73 -143 37 -392 -97 -669 -87 -179 -159 -286 -274 -400 -120 -120 -176 -152
-280 -158 -66 -3 -79 -1 -110 20 -57 38 -92 120 -98 231 -12 231 79 583 206
802 55 93 177 222 242 255 95 49 191 62 273 39z"/>
<path d="M39046 10231 c-26 -33 -60 -71 -78 -84 l-31 -25 -51 34 c-91 60 -156
77 -291 78 -102 1 -131 -3 -190 -23 -166 -57 -317 -156 -488 -321 -290 -279
-504 -629 -594 -968 -22 -81 -26 -121 -27 -242 -1 -140 0 -147 28 -208 62
-134 192 -192 362 -163 283 50 561 298 784 701 28 51 39 65 36 45 -61 -327
-74 -491 -48 -581 27 -93 86 -141 187 -151 145 -15 316 85 496 289 38 43 69
85 69 93 0 36 -32 24 -101 -35 -73 -63 -156 -110 -195 -110 -11 0 -29 9 -39
20 -40 44 -33 95 118 910 98 527 141 779 134 788 -18 23 -36 12 -81 -47z
m-578 -247 c195 -97 191 -421 -10 -816 -118 -233 -273 -415 -411 -483 -69 -34
-81 -37 -144 -33 -52 3 -76 9 -101 28 -71 52 -100 182 -81 359 42 405 200 756
403 896 114 78 247 98 344 49z"/>
<path d="M18950 10221 c-173 -38 -337 -121 -493 -249 -190 -155 -346 -389
-413 -621 -103 -354 -50 -683 141 -877 80 -81 140 -114 264 -145 121 -30 325
-24 456 15 161 48 304 127 425 235 52 47 54 50 38 67 -16 17 -19 16 -55 -8
-71 -47 -88 -55 -160 -81 -154 -56 -321 -55 -440 3 -112 55 -192 174 -235 348
-17 69 -21 118 -21 242 0 95 4 163 11 176 8 15 29 24 79 33 171 34 426 122
583 201 97 49 233 146 293 209 167 175 146 367 -48 441 -85 32 -302 38 -425
11z m44 -130 c93 -52 91 -236 -4 -379 -47 -71 -145 -149 -245 -197 -80 -39
-254 -99 -262 -91 -8 8 36 191 69 286 64 183 162 331 248 375 68 35 139 37
194 6z"/>
<path d="M22005 10226 c-385 -74 -752 -398 -902 -795 -82 -217 -99 -498 -42
-686 68 -227 218 -372 435 -421 59 -13 106 -15 213 -11 204 7 350 53 516 162
93 60 185 141 185 161 0 28 -29 25 -75 -6 -170 -117 -423 -149 -581 -74 -173
82 -265 291 -263 599 1 77 4 151 8 164 6 21 19 27 116 48 376 84 751 273 879
444 74 99 95 204 55 285 -25 52 -72 89 -147 117 -73 26 -290 33 -397 13z m40
-146 c39 -37 59 -101 52 -169 -22 -209 -175 -357 -472 -457 -59 -19 -108 -34
-110 -32 -7 6 34 180 61 263 60 182 158 339 249 395 69 43 175 43 220 0z"/>
<path d="M24210 10226 c-173 -48 -332 -181 -477 -398 -58 -87 -139 -240 -211
-398 l-11 -25 4 25 c32 174 75 439 80 490 9 83 -8 173 -41 223 -71 107 -278
104 -450 -8 -80 -52 -304 -276 -304 -304 0 -45 29 -34 110 42 119 112 210 146
256 96 41 -45 33 -121 -75 -709 -56 -300 -117 -625 -138 -723 -28 -139 -34
-180 -24 -190 8 -8 56 -13 136 -15 204 -6 266 23 280 131 10 76 51 272 91 432
85 339 200 624 330 821 59 89 168 199 227 229 98 48 194 28 233 -51 16 -33 19
-60 18 -164 -1 -112 -9 -172 -83 -570 -91 -486 -104 -601 -78 -691 30 -102 92
-144 212 -144 90 0 148 18 233 72 90 57 312 277 312 309 0 31 -31 26 -76 -12
-140 -118 -200 -148 -249 -126 -30 14 -49 78 -40 136 4 22 44 246 91 497 97
525 109 623 94 740 -25 203 -130 300 -323 298 -45 0 -102 -6 -127 -13z"/>
<path d="M34719 10201 c-31 -10 -85 -35 -120 -56 -81 -49 -332 -296 -327 -322
7 -38 39 -25 116 49 186 177 299 154 279 -56 -9 -84 -199 -1115 -237 -1278
-17 -73 -32 -142 -35 -153 -9 -43 7 -50 134 -53 88 -3 135 1 174 12 88 25 102
42 121 143 47 244 174 675 271 923 68 174 172 375 220 424 62 65 93 61 209
-22 72 -50 124 -72 179 -72 113 0 207 103 207 228 0 123 -165 252 -323 252
-153 0 -283 -122 -420 -395 -50 -102 -138 -322 -168 -423 -7 -23 -14 -41 -16
-39 -1 2 15 102 37 223 22 120 45 258 51 306 19 158 -19 270 -104 309 -55 24
-171 25 -248 0z"/>
<path d="M36500 10198 c-98 -34 -202 -110 -328 -237 -83 -83 -112 -119 -110
-135 6 -42 37 -29 118 48 122 116 200 145 250 91 45 -47 40 -86 -74 -665 -58
-294 -110 -564 -116 -600 -45 -288 75 -427 315 -364 73 18 122 46 219 124 96
78 238 234 230 255 -10 26 -33 17 -102 -41 -129 -110 -186 -133 -232 -96 -49
39 -43 89 80 727 126 652 134 720 91 809 -15 30 -38 57 -64 74 -58 38 -183 43
-277 10z"/>
<path d="M25263 5990 c-281 -138 -343 -172 -343 -189 0 -32 14 -33 93 -1 88
35 148 39 176 11 24 -24 35 -94 27 -169 -6 -52 -166 -944 -170 -949 -2 -2 -36
4 -77 13 -401 84 -991 -361 -1220 -921 -70 -173 -94 -287 -94 -455 1 -127 3
-152 23 -201 47 -117 128 -191 246 -225 79 -22 208 -15 289 16 196 74 418 313
596 640 22 41 41 72 41 69 0 -4 -14 -78 -31 -165 -54 -284 -50 -418 15 -492
41 -46 81 -62 161 -62 134 0 233 58 408 239 94 97 106 114 97 131 -6 11 -13
20 -16 20 -2 0 -39 -29 -80 -65 -95 -80 -156 -112 -193 -99 -38 14 -53 50 -48
114 3 30 118 690 257 1465 169 948 248 1415 242 1425 -5 8 -20 16 -33 17 -14
1 -168 -69 -366 -167z m-530 -1510 c87 -27 169 -99 190 -168 26 -81 28 -119
12 -211 -32 -185 -153 -464 -273 -626 -75 -103 -184 -205 -255 -240 -134 -65
-271 -34 -326 74 -92 181 -14 690 145 952 118 195 313 279 507 219z"/>
<path d="M20125 5718 c-44 -5 -230 -7 -417 -4 l-338 6 0 -23 c0 -22 5 -24 92
-35 135 -17 168 -47 168 -158 0 -80 -373 -2210 -404 -2310 -44 -138 -99 -179
-254 -190 -89 -7 -113 -18 -96 -45 3 -5 225 -9 530 -9 l524 0 0 25 c0 23 -4
25 -45 25 -64 0 -140 19 -169 41 -38 30 -49 84 -36 182 10 74 156 899 180
1023 l11 50 97 3 c53 1 123 6 155 10 l57 8 10 -37 c5 -20 42 -133 81 -251 160
-482 316 -823 454 -992 74 -91 54 -87 455 -87 l350 0 0 25 c0 21 -5 25 -28 25
-48 0 -133 30 -192 67 -202 130 -425 517 -710 1231 -29 73 -51 134 -49 136 2
2 29 16 59 31 187 94 363 270 450 450 63 129 91 293 71 415 -45 272 -295 402
-766 399 -88 -1 -196 -6 -240 -11z m346 -110 c176 -81 234 -271 179 -595 -55
-322 -166 -485 -384 -561 -59 -20 -95 -25 -211 -29 -77 -2 -145 0 -152 4 -8 6
10 130 72 478 97 543 111 607 136 657 31 61 82 78 219 74 67 -2 97 -8 141 -28z"/>
<path d="M28674 4983 c-89 -147 -149 -215 -242 -277 -79 -52 -163 -82 -255
-92 l-67 -7 0 -33 c0 -32 2 -34 33 -34 51 0 105 -19 122 -43 28 -40 17 -136
-75 -633 -103 -554 -113 -628 -99 -716 28 -171 137 -251 344 -252 113 -1 177
15 290 69 145 71 406 282 392 318 -10 26 -32 21 -84 -19 -208 -159 -483 -167
-534 -16 -7 20 -12 66 -11 102 0 50 161 1004 187 1118 5 19 12 22 57 22 28 0
130 -12 227 -26 172 -25 175 -25 200 -6 39 28 104 127 104 157 0 48 -8 49
-205 32 -101 -9 -221 -18 -268 -19 l-85 -2 3 24 c2 14 16 96 33 184 16 87 26
162 23 167 -3 5 -21 9 -39 9 -27 0 -38 -6 -51 -27z"/>
<path d="M27465 4710 c-20 -27 -52 -63 -72 -79 l-35 -29 -50 34 c-109 74 -274
97 -418 60 -427 -111 -950 -740 -1060 -1276 -29 -137 -25 -290 9 -365 26 -60
72 -109 126 -138 56 -29 179 -35 265 -12 244 63 506 309 681 638 27 51 49 89
49 86 0 -3 -12 -68 -27 -145 -22 -112 -27 -168 -28 -289 0 -142 1 -152 25
-195 65 -118 251 -123 413 -11 108 74 282 257 271 285 -10 26 -25 19 -94 -40
-75 -65 -160 -109 -194 -100 -29 7 -46 45 -46 104 0 26 61 375 135 777 101
550 131 731 122 737 -23 15 -36 8 -72 -42z m-582 -221 c72 -20 144 -103 162
-189 12 -54 7 -178 -9 -256 -68 -324 -321 -708 -526 -802 -73 -34 -166 -36
-207 -6 -92 68 -115 213 -73 461 62 362 207 639 395 748 85 50 179 66 258 44z"/>
<path d="M34889 4738 c-7 -13 -37 -49 -67 -80 l-54 -57 -45 30 c-118 82 -294
106 -443 60 -316 -97 -671 -439 -894 -863 -70 -133 -111 -238 -141 -358 -89
-368 10 -580 270 -580 273 0 588 256 799 650 25 47 46 80 46 74 0 -5 -11 -73
-25 -150 -57 -313 -41 -454 58 -528 24 -18 43 -21 121 -21 86 0 97 2 167 37
40 21 104 63 141 95 83 72 198 198 198 219 0 31 -31 27 -68 -8 -106 -101 -193
-143 -237 -114 -48 32 -46 50 100 845 75 408 134 749 131 757 -8 22 -44 17
-57 -8z m-605 -249 c211 -53 231 -373 47 -753 -151 -310 -361 -518 -526 -520
-156 -2 -216 133 -182 405 73 565 361 944 661 868z"/>
<path d="M22875 4709 c-391 -49 -780 -387 -914 -796 -62 -189 -77 -423 -36
-578 45 -173 152 -314 287 -378 98 -47 171 -61 308 -61 236 2 463 92 645 258
47 43 49 46 31 60 -17 14 -22 13 -50 -9 -87 -67 -243 -115 -371 -115 -198 0
-327 96 -395 294 -31 91 -42 171 -41 307 0 183 -6 173 109 199 263 60 555 183
709 299 150 113 217 235 192 352 -29 134 -215 200 -474 168z m-25 -138 c103
-73 68 -293 -67 -423 -80 -76 -212 -145 -370 -191 -39 -12 -53 -13 -53 -4 0 7
11 57 24 113 61 249 168 443 277 500 72 37 141 39 189 5z"/>
<path d="M30382 4709 c-128 -16 -267 -71 -390 -153 -71 -47 -198 -170 -255
-246 -108 -146 -182 -326 -217 -528 -68 -392 46 -715 295 -840 93 -46 233 -66
370 -52 402 42 753 359 874 792 57 203 69 425 32 583 -78 325 -344 492 -709
444z m42 -110 c60 -17 122 -81 166 -173 70 -147 96 -309 87 -541 -16 -412
-139 -752 -307 -852 -46 -28 -64 -33 -117 -33 -77 0 -124 21 -176 79 -47 52
-71 101 -101 204 -60 208 -61 473 -1 772 52 260 131 426 239 503 71 51 132 63
210 41z"/>
<path d="M31911 4685 c-79 -22 -157 -67 -238 -138 -88 -76 -203 -202 -203
-223 0 -37 33 -23 105 44 113 105 186 134 236 93 22 -18 24 -26 23 -118 -1
-78 -20 -198 -93 -588 -50 -269 -107 -562 -127 -649 -45 -200 -50 -191 114
-191 124 0 192 16 226 54 10 11 31 83 50 173 109 501 336 1101 457 1202 48 41
81 35 188 -34 103 -65 155 -80 218 -60 78 25 142 114 143 198 0 60 -20 100
-74 150 -109 100 -248 126 -355 67 -142 -79 -280 -305 -408 -675 -24 -69 -42
-114 -39 -100 78 418 88 488 84 586 -3 90 -6 106 -31 142 -15 23 -42 49 -59
58 -45 23 -151 27 -217 9z"/>
</g>
</svg>
