<?xml version="1.0" standalone="no"?>
<!DOCTYPE svg PUBLIC "-//W3C//DTD SVG 20010904//EN"
 "http://www.w3.org/TR/2001/REC-SVG-20010904/DTD/svg10.dtd">
<svg version="1.0" xmlns="http://www.w3.org/2000/svg"
 width="1042.000000pt" height="1042.000000pt" viewBox="0 0 1042.000000 1042.000000"
 preserveAspectRatio="xMidYMid meet">

<g transform="translate(0.000000,1042.000000) scale(0.100000,-0.100000)"
fill="#000000" stroke="none">
<path d="M4920 10413 c-1019 -58 -2019 -422 -2825 -1028 -236 -178 -335 -264
-566 -494 -432 -432 -723 -837 -989 -1376 -716 -1450 -720 -3137 -10 -4590
622 -1272 1726 -2230 3076 -2669 786 -255 1647 -318 2463 -180 1747 295 3217
1446 3920 3072 452 1044 549 2228 271 3327 -174 688 -474 1315 -897 1878 -206
272 -543 629 -793 837 -877 731 -1908 1145 -3035 1220 -137 9 -482 11 -615 3z
m510 -353 c347 -18 623 -58 936 -135 852 -210 1596 -625 2223 -1240 417 -409
708 -807 961 -1314 252 -503 401 -1009 475 -1611 23 -179 32 -716 16 -917 -84
-1063 -496 -2036 -1202 -2838 -134 -153 -399 -409 -555 -537 -771 -633 -1693
-1006 -2687 -1087 -163 -14 -625 -14 -782 -1 -1018 87 -1926 457 -2710 1104
-154 128 -503 477 -631 631 -820 994 -1204 2211 -1103 3500 71 900 400 1771
945 2500 161 216 310 383 535 601 848 823 1983 1304 3179 1347 176 7 215 6
400 -3z"/>
<path d="M4980 9770 c-1000 -51 -1933 -415 -2700 -1056 -133 -111 -383 -356
-511 -502 -563 -641 -934 -1432 -1068 -2277 -55 -347 -70 -808 -36 -1150 87
-895 421 -1718 981 -2420 164 -205 496 -539 694 -697 724 -578 1535 -906 2450
-993 218 -21 742 -16 940 9 1036 131 1928 557 2659 1271 766 748 1234 1711
1353 2790 18 163 18 778 0 940 -128 1149 -639 2150 -1491 2922 -883 800 -2074
1223 -3271 1163z m-300 -623 c0 -8 -29 -17 -81 -25 -160 -26 -269 -84 -310
-168 l-24 -49 0 -815 0 -815 938 -3 937 -2 0 819 c0 899 3 857 -61 920 -17 18
-53 43 -80 57 -51 26 -195 64 -241 64 -18 0 -28 5 -28 15 0 13 94 15 790 15
848 0 898 -3 685 -43 -112 -21 -185 -51 -238 -97 -83 -74 -77 73 -77 -1770 0
-1197 3 -1646 11 -1671 35 -103 125 -160 313 -197 49 -10 91 -23 94 -30 3 -9
-173 -12 -787 -12 -629 0 -791 3 -791 13 0 8 32 18 88 29 116 21 189 50 242
95 85 73 80 15 80 911 l0 792 -940 0 -941 0 3 -792 3 -793 23 -47 c41 -83 136
-135 305 -166 55 -11 87 -21 87 -29 0 -10 -161 -13 -790 -13 -631 0 -790 3
-790 13 0 8 36 19 101 31 194 35 299 115 314 239 3 28 5 781 3 1672 l-3 1620
-22 42 c-45 83 -130 130 -297 162 -196 38 -140 41 693 41 636 0 791 -3 791
-13z m-130 -5277 c382 -765 697 -1390 700 -1390 3 0 269 624 592 1388 l586
1387 636 3 c561 2 636 0 636 -13 0 -10 -10 -15 -27 -15 -47 0 -191 -38 -241
-64 -26 -13 -61 -39 -79 -58 -68 -70 -63 65 -63 -1760 0 -1584 1 -1655 19
-1694 39 -85 133 -139 302 -172 55 -10 89 -22 89 -29 0 -10 -175 -13 -840 -13
-680 0 -840 2 -840 13 0 8 32 19 89 30 121 23 191 50 244 98 84 73 78 -79 75
1754 l-3 1630 -116 -275 c-64 -151 -322 -761 -574 -1355 -251 -594 -538 -1271
-637 -1505 -99 -234 -184 -429 -188 -434 -5 -5 -352 678 -784 1540 l-775 1549
0 -1157 c-1 -1236 1 -1282 50 -1478 30 -117 89 -229 154 -288 53 -49 141 -92
185 -92 11 0 20 -7 20 -15 0 -13 -59 -15 -470 -15 -374 0 -470 3 -470 13 0 7
26 17 66 25 194 37 279 152 331 452 14 84 16 251 20 1437 l4 1341 -26 52 c-92
181 -206 326 -353 448 l-63 52 528 0 528 0 695 -1390z"/>
</g>
</svg>
